<!-- CMU Lettermark from https://www.cmu.edu/brand/downloads/index.html -->
<svg xmlns:dc="http://purl.org/dc/elements/1.1/" xmlns:cc="http://creativecommons.org/ns#" xmlns:rdf="http://www.w3.org/1999/02/22-rdf-syntax-ns#" xmlns:svg="http://www.w3.org/2000/svg" xmlns="http://www.w3.org/2000/svg" xmlns:sodipodi="http://sodipodi.sourceforge.net/DTD/sodipodi-0.dtd" xmlns:inkscape="http://www.inkscape.org/namespaces/inkscape" version="1.1" id="svg2" xml:space="preserve" width="50.799999" height="16.653334" viewBox="0 0 50.799999 16.653334" sodipodi:docname="cmu-lettermark-r.eps">
    <metadata id="metadata8">
        <rdf:RDF>
            <cc:Work rdf:about="">
                <dc:format>image/svg+xml</dc:format>
                <dc:type rdf:resource="http://purl.org/dc/dcmitype/StillImage" />
            </cc:Work>
        </rdf:RDF>
    </metadata>
    <defs id="defs6" />
    <sodipodi:namedview pagecolor="#ffffff" bordercolor="#666666" borderopacity="1" objecttolerance="10" gridtolerance="10" guidetolerance="10" inkscape:pageopacity="0" inkscape:pageshadow="2" inkscape:window-width="640" inkscape:window-height="480" id="namedview4" />
    <g id="g10" inkscape:groupmode="layer" inkscape:label="ink_ext_XXXXXX" transform="matrix(1.3333333,0,0,-1.3333333,0,16.653333)">
        <g id="g12" transform="scale(0.1)">
            <path d="M 95.2109,121.305 H 91.043 c -0.1641,-3.555 -2.0352,-5.082 -5.586,-5.082 -7.1172,0 -17.5195,8.64 -29.7187,8.64 C 21,124.863 0,90.6445 0,60.4805 0,30.1484 19.9883,0.164063 53.5352,0.164063 c 20.332,0 27.9531,9.660157 33.375,9.660157 3.5586,0 4.2187,-3.13281 4.2187,-6.94141 h 4.5938 V 44.3867 H 91.1289 L 90.1133,38.625 C 87.7383,24.9023 77.0859,4.62891 55.2305,4.62891 c -19.3164,0 -26.7696,16.71089 -26.7696,57.88279 0,43.2073 10.1602,57.7383 27.2774,57.7383 19.3164,0 32.5976,-21.6445 35.3047,-38.9258 h 4.1679 v 39.9808" style="fill:#c4122e;fill-opacity:1;fill-rule:nonzero;stroke:none" id="path14" />
            <path d="M 95.2109,121.305 H 91.043 c -0.1641,-3.555 -2.0352,-5.082 -5.586,-5.082 -7.1172,0 -17.5195,8.64 -29.7187,8.64 C 21,124.863 0,90.6445 0,60.4805 0,30.1484 19.9883,0.164063 53.5352,0.164063 c 20.332,0 27.9531,9.660157 33.375,9.660157 3.5586,0 4.2187,-3.13281 4.2187,-6.94141 h 4.5938 V 44.3867 H 91.1289 L 90.1133,38.625 C 87.7383,24.9023 77.0859,4.62891 55.2305,4.62891 c -19.3164,0 -26.7696,16.71089 -26.7696,57.88279 0,43.2073 10.1602,57.7383 27.2774,57.7383 19.3164,0 32.5976,-21.6445 35.3047,-38.9258 h 4.1679 v 39.9808" style="fill:#c4122e;fill-opacity:1;fill-rule:nonzero;stroke:none" id="path16" />
            <path d="m 239.809,115.641 0.105,4.722 H 201.723 L 174.035,41.1641 147.09,120.469 h -41.926 v -4.828 h 11.309 V 20.2148 c 0,-7.1875 -1.766,-12.76167 -11.309,-12.76167 v -4.6211 h 28.902 v 4.6211 h -0.511 c -9.02,0 -12.532,0.73046 -12.532,14.25777 v 94.7541 h 0.336 L 161.293,2.83203 h 4.516 L 204.738,114.457 h 0.34 V 7.45313 H 193.93 v -4.6211 h 45.879 v 4.6211 H 228.887 V 115.641 h 10.922" style="fill:#c4122e;fill-opacity:1;fill-rule:nonzero;stroke:none" id="path18" />
            <path d="m 247.777,115.844 h 11.692 V 41.6133 C 259.469,15.7031 277.34,0 304.586,0 c 30.75,0 44.109,16.2109 44.109,40.7734 v 63.4686 c 0,9.688 2.676,11.602 8.692,11.602 h 3.379 v 4.472 h -29.383 v -4.472 h 2.105 c 8.528,0 9.7,-2.578 9.7,-12.27 V 39.1133 c 0,-22.7344 -14.102,-33.09767 -28.418,-33.09767 -24.383,0 -29.239,16.37887 -30.696,37.77347 v 72.0549 h 10.957 v 4.472 h -47.254 v -4.472" style="fill:#c4122e;fill-opacity:1;fill-rule:nonzero;stroke:none" id="path20" />
            <path d="m 377.074,113.902 -1.777,4.922 h -0.067 l 0.047,-1.136 v -3.786 h -1.043 v 6.352 h 1.649 l 1.726,-4.93 1.789,4.93 h 1.582 v -6.352 h -1.113 v 3.7 l 0.051,1.207 h -0.07 l -1.856,-4.907 z m -5.293,0 h -1.086 v 5.414 h -1.836 v 0.938 h 4.789 v -0.938 h -1.867 v -5.414" style="fill:#c4122e;fill-opacity:1;fill-rule:nonzero;stroke:none" id="path22" />
        </g>
    </g>
</svg>
